<svg width="36" height="40" viewBox="0 0 36 40" fill="none" xmlns="http://www.w3.org/2000/svg">
<path d="M17.7036 10.9437C17.6567 10.9751 17.6118 11.0091 17.5689 11.0457C17.365 11.213 17.161 11.3884 16.9815 11.5719L16.9448 11.6127C16.7857 11.8004 16.6389 11.9962 16.4961 12.1961L16.4716 12.2328C16.4064 12.347 16.3452 12.4612 16.284 12.5877L16.2514 12.657C16.198 12.7578 16.1529 12.8629 16.1167 12.9711C16.076 13.0935 16.0392 13.2159 16.0107 13.3382L15.9658 13.5218C15.9543 13.5811 15.9462 13.6411 15.9413 13.7013V13.7462C15.9069 14.0006 15.9069 14.2586 15.9413 14.5131V14.5824C15.9535 14.6785 15.9712 14.7739 15.9944 14.8679V14.9169C16.0188 15.0026 16.0433 15.0882 16.0637 15.1413C16.119 15.3113 16.1915 15.4753 16.2799 15.6308L16.3248 15.7123C16.4108 15.8545 16.5062 15.9908 16.6103 16.1203L16.643 16.157L16.6838 16.2018C16.7669 16.294 16.8554 16.3812 16.9489 16.4629L16.9897 16.4956C17.064 16.5582 17.1416 16.6167 17.2222 16.671C17.3512 16.759 17.4877 16.8354 17.6301 16.8994L17.6791 16.9198C17.7553 16.9531 17.8345 16.9791 17.9157 16.9973H17.9361C18.0182 17.0143 18.1031 17.0132 18.1848 16.9942C18.2665 16.9752 18.3431 16.9387 18.4093 16.8872C18.4719 16.8381 18.5235 16.7765 18.5608 16.7062C18.598 16.6359 18.6201 16.5586 18.6255 16.4792V16.3161C18.6255 16.2671 18.6255 16.2018 18.6255 16.1243L18.6581 15.7939L18.703 15.541C18.7315 15.4117 18.7739 15.2859 18.8294 15.1657C18.8498 15.129 18.8702 15.0923 18.8865 15.0597L18.9151 15.023L18.96 14.9658L19.0375 14.8883L19.1435 14.8108H19.168L19.3067 14.7211C19.3726 14.6864 19.4366 14.6483 19.4984 14.6069C19.5869 14.5721 19.6717 14.5284 19.7513 14.4763L19.8941 14.4029L20.1266 14.2805L20.5998 14.0195C21.0369 13.7488 21.4291 13.4116 21.7624 13.0201C22.1143 12.6078 22.383 12.1313 22.5538 11.6168C22.7124 11.1429 22.7788 10.6431 22.7496 10.1442C22.7249 9.72382 22.6312 9.31037 22.4722 8.92044C22.2551 8.3834 21.914 7.90535 21.4768 7.52535C21.3645 7.42741 21.2445 7.33874 21.1179 7.2602L21.0648 7.22757C20.9999 7.18548 20.9317 7.14865 20.8609 7.11743C20.7828 7.08645 20.6989 7.07295 20.615 7.07788C20.5311 7.08282 20.4494 7.10606 20.3754 7.14598C20.3 7.18777 20.235 7.24623 20.1855 7.31692C20.136 7.38761 20.1033 7.46867 20.0899 7.5539L20.0613 7.72115C20.0613 7.76195 20.0613 7.81497 20.0328 7.87616L19.9961 8.05973C19.9263 8.4187 19.8295 8.77188 19.7065 9.11625C19.6481 9.27794 19.5743 9.43367 19.4862 9.58128C19.4121 9.70231 19.3245 9.81453 19.2251 9.91577C19.1219 10.0199 19.0115 10.1167 18.8947 10.2054C18.7642 10.3033 18.6173 10.4053 18.4541 10.5073L18.2053 10.6296L18.14 10.6704L18.0381 10.7357L17.8219 10.8825L17.7036 10.9437ZM18.0013 3.75207C18.1415 4.42372 18.1526 5.1159 18.034 5.79168C17.8988 6.53003 17.6218 7.23516 17.2181 7.868C16.8383 8.47338 16.3663 9.01566 15.819 9.47522L15.2152 9.93617L14.9175 10.1564L14.7176 10.2992C14.6203 10.3881 14.5136 10.4661 14.3994 10.5317C14.3163 10.6059 14.2291 10.6753 14.1383 10.7398C14.0853 10.7928 14.0241 10.8458 13.9629 10.8948L13.918 10.9315C13.8783 10.9773 13.8361 11.0209 13.7916 11.062C13.7916 11.062 13.7671 11.0865 13.7549 11.1028L13.6488 11.2374C13.6329 11.271 13.6152 11.3037 13.5958 11.3353L13.5632 11.3924V11.4332C13.5632 11.4863 13.5305 11.5352 13.506 11.5923C13.4449 11.7927 13.4066 11.9993 13.3918 12.2083V12.5836L13.3755 13.0772C13.3755 13.1955 13.3755 13.2974 13.4 13.3709L13.4285 13.5952C13.4389 13.6796 13.4313 13.7652 13.4061 13.8463C13.3809 13.9275 13.3388 14.0024 13.2825 14.066C13.2262 14.1297 13.157 14.1806 13.0795 14.2155C13.002 14.2504 12.918 14.2684 12.833 14.2683H12.7881C12.682 14.2581 12.5769 14.239 12.474 14.2112H12.4128C12.2024 14.1554 11.9976 14.0803 11.8009 13.9868C11.6778 13.9281 11.558 13.8627 11.442 13.791L11.3849 13.7584C11.243 13.6689 11.1068 13.5708 10.9769 13.4647L10.9035 13.4076L10.8668 13.3749C10.7014 13.222 10.546 13.0585 10.4018 12.8854L10.3283 12.7875C10.1808 12.5981 10.0524 12.3945 9.94489 12.1797C9.9041 12.1022 9.85515 11.9962 9.8062 11.882L9.77764 11.8126C9.7297 11.6927 9.68884 11.5701 9.65527 11.4455L9.62671 11.3435C9.52939 11.0065 9.47727 10.6581 9.4717 10.3074V10.2217C9.46749 10.1443 9.46749 10.0666 9.4717 9.9892L9.49618 9.72813C9.49618 9.55272 9.53697 9.37731 9.5696 9.19783C9.59557 9.04677 9.63377 8.89807 9.68382 8.75319L9.71645 8.64713C9.77356 8.46765 9.83475 8.29632 9.90002 8.125L9.92041 8.08012C10.0713 7.77418 10.2427 7.46824 10.4222 7.17454L10.4548 7.12559C10.6751 6.83188 10.9157 6.54634 11.1646 6.27303C11.213 6.2169 11.2647 6.16377 11.3196 6.11394L11.4705 5.97117C11.5562 5.88958 11.65 5.808 11.7438 5.72234L11.907 5.57548L11.9437 5.54285L12.2945 5.26138C12.5107 5.07782 12.7024 4.89833 12.8738 4.72701C13.028 4.56986 13.1711 4.40221 13.3021 4.22526C13.4307 4.04769 13.5389 3.85611 13.6243 3.65417C13.7238 3.4159 13.8003 3.16867 13.8528 2.91583C13.9578 2.39393 14.0232 1.86485 14.0486 1.3331C14.0486 1.24336 14.0486 1.14953 14.0486 1.06387C14.0486 0.978206 14.0486 0.888463 14.0486 0.823196V0.59068C14.0506 0.498224 14.0738 0.407462 14.1164 0.325398C14.1591 0.243333 14.22 0.17216 14.2945 0.117369C14.369 0.0625787 14.4551 0.0256351 14.5461 0.00938898C14.6371 -0.00685709 14.7307 -0.00197137 14.8196 0.0236692C14.9187 0.0497456 15.0156 0.0838518 15.1092 0.12565L15.1867 0.158283C15.372 0.239343 15.5507 0.334818 15.7211 0.443829C16.3908 0.873279 16.9499 1.45468 17.3527 2.14078C17.6566 2.63828 17.8758 3.18278 18.0013 3.75207ZM35.6684 26.9139C35.9162 25.9177 35.9339 24.8782 35.7201 23.8742C35.5062 22.8702 35.0665 21.9281 34.4343 21.1193C33.8021 20.3106 32.994 19.6565 32.0713 19.2066C31.1486 18.7567 30.1356 18.5229 29.1091 18.5229H1.90883C1.66733 18.5226 1.4283 18.5715 1.20638 18.6667C0.984448 18.762 0.784296 18.9015 0.618175 19.0768C0.452055 19.2521 0.323462 19.4594 0.240273 19.6861C0.157083 19.9128 0.121047 20.1542 0.134371 20.3953C0.348151 23.636 0.903278 26.845 1.79053 29.9692C2.45728 32.3135 3.77058 34.4227 5.58013 36.0554H3.23866C2.71557 36.0554 2.21391 36.2632 1.84403 36.6331C1.47415 37.0029 1.26635 37.5046 1.26635 38.0277C1.26635 38.5508 1.47415 39.0524 1.84403 39.4223C2.21391 39.7922 2.71557 40 3.23866 40H25.4214C25.9445 40 26.4462 39.7922 26.8161 39.4223C27.1859 39.0524 27.3937 38.5508 27.3937 38.0277C27.3937 37.5046 27.1859 37.0029 26.8161 36.6331C26.4462 36.2632 25.9445 36.0554 25.4214 36.0554H23.0759C24.3279 34.9251 25.3476 33.5617 26.0782 32.0414H29.1091C30.6178 32.0415 32.0832 31.5367 33.2719 30.6074C34.4606 29.6782 35.3042 28.378 35.6684 26.9139ZM31.6953 25.9267C31.556 26.5078 31.2251 27.025 30.7559 27.395C30.2867 27.765 29.7066 27.9663 29.1091 27.9663H27.3835C27.7991 26.2086 28.1138 24.4285 28.3258 22.6348H29.1091C29.5139 22.6345 29.9134 22.7265 30.2773 22.9038C30.6412 23.0811 30.96 23.339 31.2093 23.6579C31.4586 23.9769 31.6319 24.3484 31.7161 24.7444C31.8004 25.1403 31.7932 25.5502 31.6953 25.943V25.9267Z" fill="#5F7FFF"/>
</svg>
